<svg width="344" height="310" version="1.1" xmlns="http://www.w3.org/2000/svg" desc="Created with imagetracer.js version 1.2.6" ><path fill="rgb(115,145,192)" stroke="rgb(115,145,192)" stroke-width="1" opacity="0.5843137254901961" d="M 161.5 19 L 179.5 19 L 183 20 L 189 44 L 211.5 50 L 226.5 36 L 228 36 Q 226.7 32.3 232.5 34 L 248 43 L 248 49.5 L 244 63.5 L 244 68.5 L 259.5 85 L 282.5 79 L 294 94.5 L 294 98.5 L 279 114.5 L 278 118.5 Q 282.9 126.4 283 138 L 308 145 L 309 147.5 L 309 166.5 L 306.5 169 L 285.5 175 L 284 176.5 L 278 197.5 L 294 214.5 L 295 217.5 L 283.5 235 L 260.5 229 L 243 246.5 L 244 247.5 L 244 251.5 L 249 268.5 L 244.5 273 L 234.5 279 L 229.5 280 L 212.5 264 L 209.5 264 Q 200.5 268.8 189 270 L 189 274.5 L 184 290.5 L 180.5 295 L 161.5 295 L 159 292.5 L 153 270 Q 150.9 268.4 145.5 269 L 130.5 264 L 112.5 280 L 109.5 280 L 93 269.5 L 93 265.5 L 99 245.5 L 87 234.5 L 82.5 229 L 58.5 235 L 47 216.5 L 64 197.5 L 64 195.5 L 58 175 L 36.5 169 L 33 166.5 L 33 147.5 L 34.5 146 L 58 137.5 L 64 116.5 L 48 98.5 L 48 95.5 L 55 83.5 L 59.5 79 L 78.5 84 L 82.5 84 L 93.5 72 L 99 67.5 L 93 47.5 L 93 43 L 109.5 34 L 112.5 34 L 130.5 50 L 132.5 50 L 153 44 L 158 23.5 L 161.5 19 Z M 163 24 L 156 48 L 155 49 L 149 49 L 141 51 L 132 55 L 129 54 L 112 38 L 98 45 L 101 62 L 103 66 L 103 70 L 87 86 L 87 87 L 84 89 L 60 84 L 58 88 Q 59 91 56 90 L 53 96 L 54 100 L 69 117 L 64 130 L 62 141 L 59 143 L 39 150 L 37 151 L 37 164 L 42 166 L 60 171 L 63 175 L 64 184 L 69 196 L 68 200 L 54 215 Q 55 217 52 216 L 61 230 L 79 225 L 85 225 L 94 235 Q 96 234 95 237 L 103 244 L 103 249 L 98 268 L 112 276 L 129 260 L 135 260 L 144 264 L 156 266 L 163 289 L 164 290 L 179 290 L 180 289 L 186 267 L 188 265 L 199 264 L 210 259 L 213 259 L 231 276 L 244 267 L 241 258 L 239 244 L 244 240 L 258 225 L 263 225 L 282 230 L 290 217 L 273 199 L 280 172 L 302 165 L 304 165 L 304 149 L 279 141 Q 278 127 273 118 L 276 112 L 290 97 L 282 84 L 268 88 L 258 89 L 253 84 L 239 71 L 243 47 L 233 39 L 230 39 L 213 54 L 209 54 L 199 50 L 186 48 L 180 26 L 179 24 L 163 24 Z " /><path fill="rgb(115,145,192)" stroke="rgb(115,145,192)" stroke-width="1" opacity="0.5843137254901961" d="M 170.5 87 L 188.5 89 L 199.5 93 Q 213.2 99.8 223 110.5 Q 231.6 120.4 237 133.5 L 240 145.5 L 240 168.5 Q 234.5 193.5 218.5 208 Q 206.6 220.1 187.5 225 L 182.5 226 L 159.5 226 L 142.5 221 L 131.5 214 L 130 214.5 L 124.5 208 L 120 204.5 Q 109.8 193.2 104 177.5 L 102 169.5 L 102 145.5 L 108 126.5 Q 114.6 114.1 124.5 105 L 137 97 L 137.5 95 Q 139 97.5 140.5 94 L 158.5 88 L 169.5 88 L 170.5 87 Z M 163 89 Q 139 93 126 106 Q 108 121 103 149 L 103 166 L 105 175 Q 109 189 117 199 Q 125 209 137 216 L 154 223 L 164 225 L 180 225 L 195 221 Q 208 216 218 207 Q 234 192 239 166 L 239 149 L 237 140 Q 232 123 222 112 Q 211 98 193 92 L 181 89 L 163 89 Z " /><path fill="rgb(115,145,192)" stroke="rgb(115,145,192)" stroke-width="1" opacity="0.5843137254901961" d="M 169.5 90 L 187.5 92 L 198.5 96 Q 214.3 103.2 224 116.5 L 235 137.5 L 237 146.5 L 237 167.5 Q 230.8 195.3 211.5 210 L 190.5 221 L 181.5 223 L 160.5 223 Q 133.4 217.1 119 198.5 L 107 176.5 L 105 167.5 L 105 146.5 Q 111.2 117.7 131.5 103 L 148.5 94 L 159.5 91 L 168.5 91 L 169.5 90 Z M 163 92 Q 144 96 132 105 Q 111 120 106 150 L 106 166 L 108 175 L 115 191 L 120 198 Q 135 217 164 222 L 178 222 L 189 220 Q 202 216 212 208 Q 230 193 236 166 L 236 149 L 234 140 L 227 124 L 222 117 Q 212 104 197 97 L 181 92 L 163 92 Z " /><path fill="rgb(0,0,0)" stroke="rgb(0,0,0)" stroke-width="1" opacity="0" d="M 0 0 L 344 0 L 344 310 L 0 310 L 0 0 Z M 162 19 L 158 24 L 153 44 L 133 50 L 131 50 L 113 34 L 110 34 L 93 43 L 93 48 L 99 68 L 94 72 L 83 84 L 79 84 L 60 79 L 55 84 L 48 96 L 48 99 L 64 117 L 58 138 L 35 146 L 33 148 L 33 167 L 37 169 L 58 175 L 64 196 L 64 198 L 47 217 L 59 235 L 83 229 L 87 235 L 99 246 L 93 266 L 93 270 L 110 280 L 113 280 L 131 264 L 146 269 Q 151 268 153 270 L 159 293 L 162 295 L 181 295 L 184 291 L 189 275 L 189 270 Q 201 269 210 264 L 213 264 L 230 280 L 235 279 L 245 273 L 249 269 L 244 252 L 244 248 L 243 247 L 261 229 L 284 235 L 295 218 L 294 215 L 278 198 L 284 177 L 286 175 L 307 169 L 309 167 L 309 148 L 308 145 L 283 138 Q 283 126 278 119 L 279 115 L 294 99 L 294 95 L 283 79 L 260 85 L 244 69 L 244 64 L 248 50 L 248 43 L 233 34 Q 227 32 228 36 L 227 36 L 212 50 L 189 44 L 183 20 L 180 19 L 162 19 Z " /><path fill="rgb(0,0,0)" stroke="rgb(0,0,0)" stroke-width="1" opacity="0" d="M 163 24 L 178.5 24 L 180 25.5 L 186 48 L 198.5 50 L 208.5 54 L 212.5 54 L 229.5 39 L 232.5 39 L 243 46.5 L 239 70.5 L 253 83.5 L 257.5 89 L 267.5 88 L 282 84 L 290 96.5 L 276 111.5 L 273 117.5 Q 278.4 127.3 279 141 L 304 149 L 304 164.5 L 301.5 165 L 280 172 L 273 198.5 L 290 216.5 L 282 230 L 262.5 225 L 257.5 225 L 243.5 240 L 239 243.5 L 241 257.5 L 244 266.5 L 230.5 276 L 212.5 259 L 209.5 259 L 198.5 264 L 187.5 265 L 186 266.5 L 180 288.5 L 178.5 290 L 163.5 290 L 163 288.5 L 156 266 L 143.5 264 L 134.5 260 L 128.5 260 L 111.5 276 L 98 268 L 103 248.5 L 103 243.5 L 95 236.5 Q 95.8 234.3 93.5 235 L 84.5 225 L 78.5 225 L 60.5 230 L 52 216 Q 54.7 217.1 54 214.5 L 68 199.5 L 69 195.5 L 64 183.5 L 63 174.5 L 59.5 171 L 41.5 166 L 37 163.5 L 37 150.5 L 38.5 150 L 58.5 143 L 62 140.5 L 64 129.5 L 69 116.5 L 54 99.5 L 53 95.5 L 56 90 Q 59 91.3 58 87.5 L 60 84 L 83.5 89 L 87 87 L 87 85.5 L 103 69.5 L 103 65.5 L 101 61.5 L 98 45 L 111.5 38 L 128.5 54 L 131.5 55 L 140.5 51 L 148.5 49 L 154.5 49 L 156 47.5 L 163 24 Z M 171 87 L 170 88 L 159 88 L 141 94 Q 139 97 137 96 Q 138 98 136 97 L 135 99 L 150 92 L 163 89 L 181 89 L 186 90 Q 198 93 207 99 L 208 99 Q 200 92 189 89 L 171 87 Z M 170 90 L 169 91 L 160 91 L 152 93 L 137 100 L 136 102 Q 147 95 163 92 L 181 92 L 189 94 L 211 105 Q 230 120 236 149 L 236 166 L 234 175 L 228 189 L 222 198 L 205 213 L 189 220 L 178 222 L 158 221 L 139 213 L 137 214 L 149 220 L 161 223 L 182 223 L 191 221 L 212 210 Q 231 195 237 168 L 237 147 L 235 138 L 224 117 Q 214 103 199 96 L 188 92 L 170 90 Z M 133 99 L 125 105 Q 115 114 108 127 L 102 146 L 102 170 Q 104 182 110 191 L 112 192 Q 105 181 103 166 L 103 149 L 105 140 Q 110 122 121 111 L 134 100 L 133 99 Z M 209 99 Q 210 103 217 106 Q 234 121 239 149 L 239 166 L 238 171 Q 235 183 229 193 L 230 194 L 237 181 L 240 169 L 240 146 L 237 134 Q 232 120 223 111 L 209 99 Z M 134 102 L 132 103 Q 111 118 105 147 L 105 168 L 108 180 L 113 190 L 115 191 L 108 175 L 106 166 L 106 150 L 109 137 L 115 124 L 120 117 L 135 103 L 134 102 Z M 116 191 L 115 193 L 119 199 L 136 213 L 137 213 L 131 208 L 116 191 Z M 113 192 L 113 196 L 120 205 L 125 208 L 130 215 L 132 214 L 143 221 L 160 226 L 183 226 L 188 225 Q 207 220 219 208 L 229 196 L 229 194 L 221 204 Q 206 220 180 225 L 164 225 L 154 223 Q 140 219 131 212 Q 120 204 113 192 Z " /></svg>